# xmcd
#
# Track frame offsets:
#   150
#   16127
#   45588
#   73865
#   95802
#   122620
#   149597
#   177885
#   207429
#   223379
#   240431
#   265858
#   293717
#
# Disc length: 4309 seconds
#
# Revision: 0
# Processed by: cddbd v1.5.2PL0 Copyright (c) Steve Scherf et al.
# Submitted via: uFREEDB ActiveX Control 1.5
#
DISCID=ca10d30d
DTITLE=Joãozinho Aboiador - O Vaqueiro Apaixonado
DYEAR=1900
DGENRE=Country
TTITLE0=Mulher ciumenta
TTITLE1=Tributos aos Vaqueiros
TTITLE2=Caçula do Patrão
TTITLE3=O Vaqueiro do Gibão
TTITLE4=Ausencia do Vaqueiro
TTITLE5=Eterna Solidão
TTITLE6=Reclamação do Vaqueiro
TTITLE7=Ciume Louco
TTITLE8=Quem Nasceu Pra Ser Vaqueiro Não Quer Morar na Cid
TTITLE9=Fazenda Velha
TTITLE10=Amigos de Toritama
TTITLE11=Saudade da Minha Terra
TTITLE12=Vaqueiro de Confiança
EXTD=
EXTT0=
EXTT1=
EXTT2=
EXTT3=
EXTT4=
EXTT5=
EXTT6=
EXTT7=
EXTT8=
EXTT9=
EXTT10=
EXTT11=
EXTT12=
PLAYORDER=
